<svg id="Group_97" data-name="Group 97" xmlns="http://www.w3.org/2000/svg" width="50.607" height="26.99" viewBox="0 0 50.607 26.99">
  <path id="Union_84" data-name="Union 84" d="M40.485,26.99H26.99V23.617H23.616V20.244H26.99v3.374h0V20.243H23.616V16.869h6.747V13.5h6.749V6.748h6.746V3.374h6.749V23.617H43.86V20.244H40.485v3.374h3.374V26.99Zm-3.373-3.373h0Zm-3.375,0h0Zm0-3.375v0ZM43.86,16.869V10.122h0v6.748ZM20.242,20.243v0H16.87V13.5h0V6.748h3.373v0h3.374V16.869h0v3.374Zm6.749-3.374H23.616V13.5h0V6.748h3.374v0H37.112V13.5H30.364v3.373Zm-13.5,0H10.121v0H6.747V10.122h0V6.748h6.748v0h3.374V16.869Zm0-3.373h0ZM3.374,16.869V10.122H6.746v6.748ZM0,13.5V10.122H3.374V13.5ZM37.112,6.748H26.99V3.374h6.748V0h3.374V3.374h0V0h3.373V6.748Z" fill="#a8a8a8"/>
</svg>
