<svg xmlns="http://www.w3.org/2000/svg" width="57.252" height="31" viewBox="0 0 57.252 31">
  <g id="Group_83" data-name="Group 83" transform="translate(-2459.505 -186.182)">
    <g id="Group_37" data-name="Group 37" transform="translate(2493.755 186.682)">
      <path id="Union_51" data-name="Union 51" d="M11.25,30H0V26.251H7.5V22.5H11.25v3.75H15V30Zm7.5-3.749H15V22.5h3.75V15H22.5v11.25ZM7.5,7.5H3.75V3.749H7.5V0H11.25V7.5Z" fill="rgba(209,210,210,0.6)" stroke="rgba(0,0,0,0)" stroke-miterlimit="10" stroke-width="1"/>
    </g>
    <g id="Group_36" data-name="Group 36" transform="translate(2490.006 194.182)">
      <path id="Union_50" data-name="Union 50" d="M7.5,18.751V15h3.75v3.75Zm-3.75,0H0V15H7.5v3.75Zm15-3.75H15V11.25h3.75V3.75H22.5V0h3.75V7.5H22.5V15Z" fill="rgba(233,234,234,0.6)"/>
    </g>
    <g id="Group_35" data-name="Group 35" transform="translate(2486.256 186.682)">
      <path id="Union_49" data-name="Union 49" d="M3.75,30V26.251H0V22.5H3.75v3.75H7.5V30ZM22.5,11.25v-7.5H30V7.5h-3.75v3.75ZM7.5,7.5V3.749h3.75V7.5ZM3.75,7.5V3.749H7.5V7.5Zm7.5-3.75V0H15V3.749Z" fill="rgba(255,255,255,0.6)" stroke="rgba(0,0,0,0)" stroke-miterlimit="10" stroke-width="1"/>
    </g>
    <g id="Group_32" data-name="Group 32" transform="translate(2467.505 194.182)">
      <path id="Union_46" data-name="Union 46" d="M37.5,11.25V3.75h3.75v7.5Zm-15,0V3.75h3.749v7.5Zm-7.5,0V7.5h3.75V11.25Zm-7.5,0V3.75h3.75v7.5Zm-7.5,0V7.5H3.75V11.25ZM30,7.5V0h3.75V7.5Z" transform="translate(0 0)" fill="rgba(224,224,224,0.6)" stroke="rgba(0,0,0,0)" stroke-miterlimit="10" stroke-width="1"/>
    </g>
    <g id="Group_34" data-name="Group 34" transform="translate(2482.505 194.182)">
      <path id="Union_48" data-name="Union 48" d="M0,7.5V3.75H3.75V7.5ZM22.5,3.75V0h3.75V3.75Z" fill="rgba(203,203,203,0.6)" stroke="rgba(0,0,0,0)" stroke-miterlimit="10" stroke-width="1"/>
    </g>
    <g id="Group_38" data-name="Group 38" transform="translate(2471.255 194.182)">
      <path id="Union_52" data-name="Union 52" d="M30,15V7.5H33.75V15ZM15,11.25V7.5h3.75V11.25Zm-15,0V7.5H3.75V11.25ZM22.5,7.5V0h3.75V7.5Zm-15,0V3.75H11.25V7.5Z" fill="#fff" stroke="rgba(0,0,0,0)" stroke-miterlimit="10" stroke-width="1"/>
    </g>
    <g id="Group_40" data-name="Group 40" transform="translate(2478.756 194.182)">
      <path id="Union_54" data-name="Union 54" d="M15,15V11.25h3.75V15ZM0,15V11.25H3.749V15ZM22.5,7.5V0H26.25V7.5ZM0,3.75V0H3.749V3.75Z" transform="translate(0 0)" fill="#9d9d9d" stroke="rgba(0,0,0,0)" stroke-miterlimit="10" stroke-width="1"/>
    </g>
    <g id="Group_33" data-name="Group 33" transform="translate(2482.505 205.432)">
      <path id="Union_47" data-name="Union 47" d="M15,3.75V0h3.75V3.75Zm-7.5,0V0H11.25V3.75ZM0,3.75V0H3.75V3.75Z" transform="translate(0 0)" fill="rgba(150,150,150,0.6)" stroke="rgba(0,0,0,0)" stroke-miterlimit="10" stroke-width="1"/>
    </g>
    <rect id="Rectangle_245" data-name="Rectangle 245" width="3.75" height="3.749" transform="translate(2497.506 201.683)" fill="rgba(203,203,203,0.6)"/>
    <g id="Group_39" data-name="Group 39" transform="translate(2460.005 194.182)">
      <path id="Union_53" data-name="Union 53" d="M26.251,15V11.25H30V15Zm7.5-3.75V7.5H37.5V11.25Zm-15,0V7.5H22.5V11.25Zm7.5-3.749V0H30V7.5Zm-15,0V0H15V7.5ZM0,7.5V3.75H3.75V7.5Z" transform="translate(0 0)" fill="#e3e3e3" stroke="rgba(0,0,0,0)" stroke-miterlimit="10" stroke-width="1"/>
    </g>
    <g id="Group_31" data-name="Group 31" transform="translate(2463.755 194.182)">
      <path id="Union_45" data-name="Union 45" d="M0,11.25V3.75H3.749v7.5Zm26.251-7.5V0H30V3.75Zm-7.5,0V0H22.5V3.75Zm-7.5,0V0H15V3.75Zm-7.5,0V0H7.5V3.75Z" transform="translate(0 0)" fill="rgba(255,255,255,0.6)" stroke="rgba(0,0,0,0)" stroke-miterlimit="10" stroke-width="1"/>
    </g>
    <rect id="Rectangle_284" data-name="Rectangle 284" width="3.75" height="3.75" transform="translate(2467.505 197.933)" fill="#040505"/>
  </g>
</svg>
