<svg xmlns="http://www.w3.org/2000/svg" width="57.248" height="30.003" viewBox="0 0 57.248 30.003">
  <path id="Union_144" data-name="Union 144" d="M33.749,29H30V25.378h-3.75V21.753h-7.5V18.127h0v3.626h-7.5V18.127H3.75V17.076h0V14.5H0V10.877H7.5V14.5h3.751V10.876H7.5V7.251H30V3.626h7.5V0H45V7.251h3.75V3.626H52.5V0h3.75V7.251h0V15.1h0v3.026H52.5v.948h0v2.677H45v3.626h3.75V29h-15Zm5.571-7.25h0ZM7.5,14.5V10.876h3.75V14.5Z" transform="translate(0.5 0.5)" fill="#636363" stroke="rgba(0,0,0,0)" stroke-miterlimit="10" stroke-width="1"/>
</svg>
