<svg xmlns="http://www.w3.org/2000/svg" width="57.251" height="31" viewBox="0 0 57.251 31">
  <g id="Group_128" data-name="Group 128" transform="translate(0.5 0.5)">
    <path id="Union_108" data-name="Union 108" d="M41.25,30h-15V26.25H22.5V22.5H18.75v-3.75H22.5V22.5h3.75v-3.75H30V22.5h3.75V15H37.5v7.5h3.75v3.75H45V30Zm-15-3.75h0Zm22.5,0H45V22.5H41.25V7.5H45v11.25h0v-15h7.5v22.5Zm-22.5-7.5v-7.5h0V7.5H30v11.25Zm-7.5,0V7.5H22.5v11.25Zm-7.5,0V7.5H15v3.75h0v7.5Zm-7.5,0H0v-7.5H3.75v0H7.5v7.5ZM33.75,15V7.5H37.5V15Zm-30-3.75V7.5H7.5v3.75ZM37.5,7.5H26.25V3.75h7.5V0h7.5V7.5Z" transform="translate(3.75)" fill="rgba(209,210,210,0.2)" stroke="rgba(0,0,0,0)" stroke-miterlimit="10" stroke-width="1"/>
    <g id="Group_38" data-name="Group 38" transform="translate(11.25 7.5)">
      <path id="Union_52" data-name="Union 52" d="M30,15V7.5H33.75V15ZM15,11.25V7.5h3.75V11.25Zm-15,0V7.5H3.75V11.25ZM22.5,7.5V0h3.75V7.5Zm-15,0V3.75H11.25V7.5Z" transform="translate(0 0)" fill="#7dd4ff" stroke="rgba(0,0,0,0)" stroke-miterlimit="10" stroke-width="1"/>
    </g>
    <g id="Group_40" data-name="Group 40" transform="translate(18.751 7.5)">
      <path id="Union_54" data-name="Union 54" d="M15,15V11.25h3.75V15ZM0,15V11.25H3.749V15ZM22.5,7.5V0h3.749V7.5ZM0,3.75V0H3.749V3.75Z" transform="translate(0 0)" fill="#4fa6c9" stroke="rgba(0,0,0,0)" stroke-miterlimit="10" stroke-width="1"/>
    </g>
    <g id="Group_39" data-name="Group 39" transform="translate(0 7.5)">
      <path id="Union_53" data-name="Union 53" d="M26.25,15V11.25H30V15Zm7.5-3.75V7.5H37.5V11.25Zm-15,0V7.5H22.5V11.25ZM26.25,7.5V0H30V7.5Zm-15,0V0H15V7.5ZM0,7.5V3.75H3.75V7.5Z" transform="translate(0 0)" fill="#58bbf9" stroke="rgba(0,0,0,0)" stroke-miterlimit="10" stroke-width="1"/>
    </g>
  </g>
</svg>
