<svg xmlns="http://www.w3.org/2000/svg" width="57.252" height="31.001" viewBox="0 0 57.252 31.001">
  <g id="Group_114" data-name="Group 114" transform="translate(0.5 0.5)">
    <path id="Union_111" data-name="Union 111" d="M45,30v-3.75h3.75V30Zm-3.75,0H30v-3.75h-3.75V22.5H45V30ZM30,26.251h0Zm22.5,0H48.752V22.5H45v-3.75h3.75v-15H52.5v0h3.75v22.5Zm-33.751-7.5H7.5v-7.5h18.75V15H22.5v3.75Zm-15,0V15H0V11.251H7.5v7.5Zm22.5-7.5V7.5H30v3.75Zm-3.75,0H7.5V7.5h18.75v3.75ZM41.251,7.5H30V3.75h7.5V0H45V7.5Z" transform="translate(0 0)" fill="rgba(209,210,210,0.2)" stroke="rgba(0,0,0,0)" stroke-miterlimit="10" stroke-width="1"/>
    <g id="Group_62" data-name="Group 62" transform="translate(18.751 11.251)">
      <path id="Union_76" data-name="Union 76" d="M22.5,11.25H0V7.5H3.75V3.749H7.5V7.5h15V3.749h3.75v7.5ZM26.251,7.5V0H30V7.5Z" transform="translate(0 0)" fill="#4fa6c9" stroke="rgba(0,0,0,0)" stroke-miterlimit="10" stroke-width="1"/>
    </g>
    <g id="Group_61" data-name="Group 61" transform="translate(26.251 7.501)">
      <path id="Union_75" data-name="Union 75" d="M7.5,7.5H0V3.75H3.75V0H22.5V3.75H11.25V7.5Z" transform="translate(0 0)" fill="#7dd4ff" stroke="rgba(0,0,0,0)" stroke-miterlimit="10" stroke-width="1"/>
    </g>
    <g id="Group_63" data-name="Group 63" transform="translate(26.251 11.251)">
      <path id="Union_77" data-name="Union 77" d="M11.25,7.5H0V3.749H11.25V0h7.5V3.749H15V7.5Z" transform="translate(0 0)" fill="#58bbf9" stroke="rgba(0,0,0,0)" stroke-miterlimit="10" stroke-width="1"/>
    </g>
  </g>
</svg>
