<svg xmlns="http://www.w3.org/2000/svg" width="57.252" height="31" viewBox="0 0 57.252 31">
  <g id="Group_113" data-name="Group 113" transform="translate(-4099.5 -186.182)">
    <path id="Union_110" data-name="Union 110" d="M37.5,30h-15V26.251H18.75V22.5h-7.5V18.75h15V15h0v3.75h-15V15H15V11.25H18.75V7.5H37.5v0h3.75V3.749h7.5v22.5h-7.5V22.5H37.5v3.75h3.75V30Zm-15-3.749h0ZM33.751,15V11.25h0ZM0,15V11.25H3.75V15ZM33.751,7.5H22.5V3.749H30V0h7.5V7.5Z" transform="translate(4107.5 186.681)" fill="rgba(209,210,210,0.2)" stroke="rgba(0,0,0,0)" stroke-miterlimit="10" stroke-width="1"/>
    <g id="Group_53" data-name="Group 53" transform="translate(4107.5 194.181)">
      <path id="Union_67" data-name="Union 67" d="M7.5,11.25H0V7.5H11.25V11.25ZM11.25,7.5V3.75H15V7.5ZM15,3.75V0H18.75V3.75Z" transform="translate(0 0)" fill="#4fa6c9" stroke="rgba(0,0,0,0)" stroke-miterlimit="10" stroke-width="1"/>
    </g>
    <g id="Group_51" data-name="Group 51" transform="translate(4100 194.181)">
      <path id="Union_65" data-name="Union 65" d="M3.75,7.5H0V3.75H7.5V7.5Zm15-3.75H7.5V0h15V3.75Z" transform="translate(0 0)" fill="#7dd4ff" stroke="rgba(0,0,0,0)" stroke-miterlimit="10" stroke-width="1"/>
    </g>
    <g id="Group_52" data-name="Group 52" transform="translate(4103.75 197.931)">
      <path id="Union_66" data-name="Union 66" d="M0,7.5V3.75H3.75V7.5ZM11.25,3.75H7.5V0H15V3.75Z" transform="translate(0 0)" fill="#58bbf9" stroke="rgba(0,0,0,0)" stroke-miterlimit="10" stroke-width="1"/>
    </g>
  </g>
</svg>
