<svg xmlns="http://www.w3.org/2000/svg" width="56.248" height="29.914" viewBox="0 0 56.248 29.914">
  <g id="Group_115" data-name="Group 115" transform="translate(0 0.001)">
    <path id="Union_113" data-name="Union 113" d="M45,29.914H30V26.175h-3.75v-3.74h-7.5V18.7H7.5V14.957h3.749v-3.74H30v3.739h0v-3.74h-3.75V7.478H30V3.74h7.5V0H45V7.478h3.749V3.74h7.5V26.175h-7.5V22.436H45v3.739h3.749v3.739Zm-11.25-3.738h0Zm0-7.479V14.957h0V18.7ZM45,14.957V11.218h-3.75v3.74H45Zm-7.5,0V7.478h0v7.479Zm15-3.739h0ZM3.75,18.7V14.957H0v-3.74H7.5V18.7Zm37.5-3.739V11.218H45v3.739Zm-33.748,0V7.478H26.249v3.739h-15v3.74Z" transform="translate(0 0)" fill="rgba(209,210,210,0.2)"/>
  </g>
</svg>
